<?xml version="1.0" encoding="UTF-8" standalone="no"?>
<!-- Created with Inkscape (http://www.inkscape.org/) -->

<svg
   xmlns:dc="http://purl.org/dc/elements/1.1/"
   xmlns:cc="http://creativecommons.org/ns#"
   xmlns:rdf="http://www.w3.org/1999/02/22-rdf-syntax-ns#"
   xmlns:svg="http://www.w3.org/2000/svg"
   xmlns="http://www.w3.org/2000/svg"
   xmlns:sodipodi="http://sodipodi.sourceforge.net/DTD/sodipodi-0.dtd"
   xmlns:inkscape="http://www.inkscape.org/namespaces/inkscape"
   version="1.1"
   id="svg815"
   xml:space="preserve"
   width="32"
   height="32"
   viewBox="0 0 32 32"
   sodipodi:docname="logo_dct.svg"
   inkscape:version="0.92.4 (5da689c313, 2019-01-14)"
   inkscape:export-filename="C:\Users\dk\Documents\DCT\images\svg\large\logo_dct.png"
   inkscape:export-xdpi="96"
   inkscape:export-ydpi="96"><title
     id="title837">logo_dct</title><metadata
     id="metadata821"><rdf:RDF><cc:Work
         rdf:about=""><dc:format>image/svg+xml</dc:format><dc:type
           rdf:resource="http://purl.org/dc/dcmitype/StillImage" /><dc:title>logo_dct</dc:title></cc:Work></rdf:RDF></metadata><defs
     id="defs819"><clipPath
       clipPathUnits="userSpaceOnUse"
       id="clipPath831"><path
         d="M 0,841.89 H 595.28 V 0 H 0 Z"
         id="path829"
         inkscape:connector-curvature="0" /></clipPath></defs><sodipodi:namedview
     pagecolor="#ffffff"
     bordercolor="#666666"
     borderopacity="1"
     objecttolerance="10"
     gridtolerance="10"
     guidetolerance="10"
     inkscape:pageopacity="0"
     inkscape:pageshadow="2"
     inkscape:window-width="1920"
     inkscape:window-height="1137"
     id="namedview817"
     showgrid="false"
     fit-margin-top="0"
     fit-margin-left="0"
     fit-margin-right="0"
     fit-margin-bottom="0"
     inkscape:zoom="4.2835103"
     inkscape:cx="7.9292169"
     inkscape:cy="21.408999"
     inkscape:window-x="-8"
     inkscape:window-y="-8"
     inkscape:window-maximized="1"
     inkscape:current-layer="g823" /><g
     id="g823"
     inkscape:groupmode="layer"
     inkscape:label="logo_DCT_red"
     transform="matrix(1.3333333,0,0,-1.3333333,-1.3955186e-5,32)"><g
       id="g825"
       transform="matrix(0.08194175,0,0,0.08194119,-13.079392,-28.821536)"
       style="stroke-width:4.75"><g
         id="g827"
         clip-path="url(#clipPath831)"
         style="stroke-width:4.75"><g
           id="g833"
           transform="translate(306.0693,644.6274)"
           style="stroke-width:4.75"><path
             d="m 0,0 c -80.884,0 -146.451,-65.569 -146.451,-146.448 0,-80.885 65.567,-146.445 146.451,-146.445 80.879,0 146.44,65.56 146.44,146.445 C 146.44,-65.569 80.879,0 0,0 m 128.125,-122.465 c -14.078,0 -20.262,-0.014 -34.643,-0.014 v -78.975 H 64.089 v 78.975 l -48.361,-0.008 c -13.991,-0.004 -25.189,-10.413 -25.189,-24.721 0,-13.303 10.51,-24.661 23.689,-24.673 l 23.425,-0.016 v -29.581 l -18.33,0.093 c -3.981,-0.041 -7.973,0.08 -12.01,0.722 -20.527,3.173 -37.22,17.981 -43.12,37.48 -5.906,-19.499 -22.598,-34.307 -43.135,-37.48 -2.32,-0.379 -4.635,-0.642 -6.955,-0.827 l -32.284,0.004 c 20.75,-44.478 65.863,-75.304 118.181,-75.304 71.981,0 130.334,58.352 130.334,130.342 0,8.194 -0.756,16.212 -2.209,23.983 m -247.419,28.593 c 10.989,-0.003 22.074,0.143 33.03,-0.035 23.826,-0.404 43.865,-16.343 50.457,-38.114 5.813,19.204 22.085,33.861 42.189,37.333 4.068,0.705 7.806,0.787 11.993,0.787 h 75.49 l 25.439,-0.004 C 99.097,-48.09 53.286,-16.108 0,-16.108 c -53.277,0 -99.082,-31.968 -119.294,-77.764 M 0,-6.88 c 77.079,0 139.567,-62.487 139.567,-139.568 0,-77.084 -62.488,-139.572 -139.567,-139.572 -68.396,0 -125.292,49.193 -137.254,114.123 l 16.815,0.016 34.504,-0.008 c 13.22,-0.004 23.773,11.346 23.773,24.681 0,13.42 -10.695,24.76 -24.039,24.76 h -26.413 v -27.496 h -17.682 -9.234 c -0.026,1.162 -0.041,2.325 -0.041,3.496 0,77.081 62.486,139.568 139.571,139.568"
             style="fill:#cf181f;fill-opacity:1;fill-rule:evenodd;stroke:none;stroke-width:4.75"
             id="path835"
             inkscape:connector-curvature="0" /></g></g></g></g></svg>